# xmcd
#
# Track frame offsets:
#	150
#	16659
#	31007
#	45027
#	67680
#	85124
#	101396
#	111227
#	131127
#	149022
#	160350
#	176375
#
# Disc length: 2520 seconds
#
# Revision: 14
# Processed by: cddbd v1.5.2PL0 Copyright (c) Steve Scherf et al.
# Submitted via: EasyCDDAExtractor 5.1.0
#
DISCID=8909d60c
DTITLE=Tracy Chapman - Let it rain
DYEAR=2002
DGENRE=Folk/Rock
TTITLE0=Let it rain
TTITLE1=Another sun
TTITLE2=You're the one
TTITLE3=In the dark
TTITLE4=Almost
TTITLE5=Hard wired
TTITLE6=Say hallelujah
TTITLE7=Broken
TTITLE8=Happy
TTITLE9=Goodbye
TTITLE10=I am yours
TTITLE11=Over In Love
EXTD=
EXTT0=
EXTT1=
EXTT2=
EXTT3=
EXTT4=
EXTT5=
EXTT6=
EXTT7=
EXTT8=
EXTT9=
EXTT10=
EXTT11=
PLAYORDER=
